<?xml version="1.0" encoding="UTF-8"?>
<svg width="250px" height="63px" viewBox="0 0 250 63" version="1.1" xmlns="http://www.w3.org/2000/svg" xmlns:xlink="http://www.w3.org/1999/xlink">
    <!-- Generator: Sketch 47.1 (45422) - http://www.bohemiancoding.com/sketch -->
    <title>Group</title>
    <desc>Created with Sketch.</desc>
    <defs>
        <path d="M31.4608649,62.3214049 C31.6574678,62.2950145 31.8529671,62.2325367 32.0360649,62.1329417 C32.7731603,61.7320026 32.9743851,60.7964781 32.5721785,60.0615445 C32.1031399,59.3933127 31.1650627,59.12602 30.4950423,59.5269591 C29.7579469,59.9278981 29.5569651,60.8634226 29.9589287,61.5983563 C30.1875089,62.0162827 30.5894535,62.2614172 31.0292191,62.3214049 L31.029212,62.3214049 L31.2450384,62.3214049 L31.4608649,62.3214049 L31.4608649,62.3214049 Z M0.0145815106,24.0331237 C0.0950449621,24.452734 0.496361233,24.7796348 0.944395839,24.7796348 C1.54758433,24.7796348 2.01662292,24.3119938 2.01662292,23.7774084 C2.01662292,23.1758785 1.54758433,22.7749395 1.01147079,22.7749395 C0.458771209,22.7749395 0.0747477172,23.168091 0.0145815106,23.6453827 L0.0145815106,24.0331237 L0.0145815106,24.0331237 Z M43.0347704,-1.04948788e-09 L43.0205184,-1.04948788e-09 C42.7252955,0.00229716141 42.4242297,0.147059263 42.2214931,0.389781651 C41.9534364,0.790720711 42.0202683,1.39225058 42.422475,1.72624519 C42.8915136,2.06048235 43.494459,1.92683599 43.7625158,1.52589693 C44.0305726,1.12495787 43.9634976,0.523428004 43.561534,0.189433397 C43.4068302,0.0607954877 43.2223199,0.00146284257 43.0347703,-1.38555833e-09 L43.0347704,-1.04948788e-09 Z M48.9221833,21.2381277 C50.2622242,21.2381277 51.3344512,20.1689569 51.3344512,18.8324933 C51.3344512,17.4960298 50.2622242,16.4271015 48.9221833,16.4271015 C47.5818995,16.4271015 46.5099154,17.4960298 46.5099154,18.8324933 C46.5099154,20.1689569 47.5818995,21.2381277 48.9221833,21.2381277 Z M41.9534364,23.1091766 C41.9534364,24.111403 42.8244386,24.9802256 43.8295907,24.9802256 C44.8347429,24.9802256 45.7057451,24.111403 45.7057451,23.1091766 C45.7057451,22.1069503 44.8347429,21.2381277 43.8295907,21.2381277 C42.8244386,21.2381277 41.9534364,22.0400058 41.9534364,23.1091766 Z M44.0305726,16.8947425 C45.3708564,16.8947425 46.4428405,15.8255717 46.4428405,14.4891081 C46.4428405,13.1526446 45.3708564,12.0837163 44.0305726,12.0837163 C42.6905317,12.0837163 41.6183047,13.1526446 41.6183047,14.4891081 C41.6183047,15.8255717 42.6905317,16.8947425 44.0305726,16.8947425 Z M38.8040731,13.0189982 C40.077039,13.0189982 41.0821911,12.0167719 41.0821911,10.7472528 C41.0821911,9.47749114 40.077039,8.47526476 38.8040731,8.47526476 C37.5308642,8.47526476 36.5257121,9.47749114 36.5257121,10.7472528 C36.5257121,12.0167719 37.5308642,13.0189982 38.8040731,13.0189982 Z M32.9743851,9.8117283 C34.1134442,9.8117283 35.0515213,8.87620382 35.0515213,7.74008854 C35.0515213,6.60421581 34.1134442,5.66869134 32.9743851,5.66869134 C31.8350831,5.66869134 30.8970059,6.60421581 30.8970059,7.74008854 C30.8970059,8.87620382 31.8350831,9.8117283 32.9743851,9.8117283 Z M27.345679,7.40609394 C28.3508311,7.40609394 29.2218334,6.53751391 29.2218334,5.53504499 C29.2218334,4.53281861 28.3508311,3.66399604 27.345679,3.66399604 C26.3405269,3.66399604 25.4695246,4.53281861 25.4695246,5.53504499 C25.4695246,6.53751391 26.3405269,7.40609394 27.345679,7.40609394 Z M20.8459706,6.0696304 C21.8508798,6.0696304 22.6550501,5.26775228 22.6550501,4.2655259 C22.6550501,3.26305698 21.8508798,2.46117885 20.8459706,2.46117885 C19.8408185,2.46117885 19.0366482,3.26305698 19.0366482,4.2655259 C19.1037231,5.26775228 19.9076504,6.0696304 20.8459706,6.0696304 Z M14.4130942,6.47056946 C15.3511714,6.47056946 16.0882667,5.73563579 16.0882667,4.80011132 C16.0882667,3.86458684 15.3511714,3.12941062 14.4130942,3.12941062 C13.475017,3.12941062 12.7379216,3.86458684 12.7379216,4.80011132 C12.7379216,5.66869134 13.475017,6.47056946 14.4130942,6.47056946 Z M8.58340624,5.53504499 C7.77923593,5.53504499 7.10921551,6.20327675 7.10921551,7.00515488 C7.10921551,7.807033 7.77923593,8.47526476 8.58340624,8.47526476 C9.38757655,8.47526476 10.057597,7.807033 10.057597,7.00515488 C10.057597,6.20327675 9.38757655,5.53504499 8.58340624,5.53504499 Z M5.56794984,11.4821864 C5.56794984,10.6803083 4.89792943,10.0120766 4.09375911,10.0120766 C3.28983183,10.0120766 2.61981141,10.6803083 2.61981141,11.4821864 C2.61981141,12.2840646 3.28983183,12.9522963 4.09375911,12.9522963 C4.89792943,12.9522963 5.56794984,12.351009 5.56794984,11.4821864 Z M1.54758433,16.1598088 C0.877563916,16.1598088 0.341450374,16.6943942 0.341450374,17.3623834 C0.341450374,18.0306152 0.877563916,18.5652006 1.54758433,18.5652006 C2.21760474,18.5652006 2.75371829,18.0306152 2.75371829,17.3623834 C2.75371829,16.6943942 2.21760474,16.1598088 1.54758433,16.1598088 Z M1.8156411,28.9226718 C1.27952756,28.9226718 0.877563916,29.3236108 0.877563916,29.8581962 C0.877563916,30.3927816 1.27952756,30.7937207 1.8156411,30.7937207 C2.35175464,30.7937207 2.75371829,30.3927816 2.75371829,29.8581962 C2.75371829,29.3236108 2.35175464,28.9226718 1.8156411,28.9226718 Z M4.22790901,35.0701615 C3.75887042,35.0701615 3.28983183,35.4711005 3.28983183,36.0056859 C3.28983183,36.5402714 3.69179547,36.9412104 4.22790901,36.9412104 C4.76402255,36.9412104 5.1659862,36.5402714 5.1659862,36.0056859 C5.1659862,35.4711005 4.76402255,35.0701615 4.22790901,35.0701615 Z M7.84631088,36.0056859 C7.31019734,36.0056859 6.90823369,36.406625 6.90823369,36.9412104 C6.90823369,37.4757958 7.31019734,37.8767349 7.84631088,37.8767349 C8.38242442,37.8767349 8.78438806,37.4757958 8.78438806,36.9412104 C8.78438806,36.406625 8.31534947,36.0056859 7.84631088,36.0056859 Z M6.23821328,31.1277153 C5.76917469,31.1277153 5.36696802,31.5286544 5.36696802,31.9965379 C5.36696802,32.4641788 5.76917469,32.8651179 6.23821328,32.8651179 C6.70725187,32.8651179 7.10921551,32.4641788 7.10921551,31.9965379 C7.04214057,31.5286544 6.70725187,31.1277153 6.23821328,31.1277153 Z M4.22790901,27.1185673 C4.22790901,27.5862082 4.62987265,27.9871473 5.09891125,27.9871473 C5.56794984,27.9871473 5.97015651,27.5862082 5.97015651,27.1185673 C5.97015651,26.6506837 5.56794984,26.2497447 5.09891125,26.2497447 C4.62987265,26.3166891 4.22790901,26.6506837 4.22790901,27.1185673 Z M4.62987265,21.7727131 C4.62987265,22.3072985 5.03207932,22.7082376 5.56794984,22.7082376 C6.10406338,22.7082376 6.50627005,22.3072985 6.50627005,21.7727131 C6.50627005,21.2381277 6.10406338,20.8371886 5.56794984,20.8371886 C5.03207932,20.8371886 4.62987265,21.2381277 4.62987265,21.7727131 Z M7.51117916,15.959218 C6.84115874,15.959218 6.3050452,16.4938034 6.3050452,17.1620352 C6.3050452,17.830267 6.84115874,18.3648524 7.51117916,18.3648524 C8.1814426,18.3648524 8.71731311,17.830267 8.71731311,17.1620352 C8.78438806,16.5607479 8.24827452,15.959218 7.51117916,15.959218 Z M12.7379216,13.5535836 C12.7379216,12.7517055 12.0679012,12.0837163 11.2637309,12.0837163 C10.4595606,12.0837163 9.7895402,12.7517055 9.7895402,13.5535836 C9.7895402,14.3554618 10.4595606,15.0236935 11.2637309,15.0236935 C12.0008263,15.0236935 12.7379216,14.3554618 12.7379216,13.5535836 Z M14.5470011,11.6827772 C14.5470011,12.4844128 15.2172645,13.1526446 16.0211918,13.1526446 C16.8253621,13.1526446 17.4953825,12.4844128 17.4953825,11.6827772 C17.4953825,10.8808991 16.8253621,10.2126674 16.0211918,10.2126674 C15.2840964,10.2126674 14.5470011,10.8808991 14.5470011,11.6827772 Z M21.2479343,9.8117283 C20.376689,9.8117283 19.6398367,10.546662 19.6398367,11.4154845 C19.6398367,12.2840646 20.376689,13.0189982 21.2479343,13.0189982 C22.1189365,13.0189982 22.8560319,12.2840646 22.8560319,11.4154845 C22.8560319,10.546662 22.1189365,9.8117283 21.2479343,9.8117283 Z M26.206377,10.7472528 C25.4024497,10.7472528 24.7324293,11.4154845 24.7324293,12.2840646 C24.7324293,13.0859427 25.4024497,13.7541745 26.206377,13.7541745 C27.0105473,13.7541745 27.6805677,13.0859427 27.6805677,12.2840646 C27.7476427,11.4154845 27.0105473,10.7472528 26.206377,10.7472528 Z M31.1650627,15.959218 C32.1702148,15.959218 32.9743851,15.1573399 32.9743851,14.1551135 C32.9743851,13.1526446 32.1702148,12.351009 31.1650627,12.351009 C30.1599106,12.351009 29.3559833,13.1526446 29.3559833,14.1551135 C29.4228152,15.1573399 30.2269855,15.959218 31.1650627,15.959218 Z M33.9124623,16.6274498 C33.9124623,17.6296762 34.7163896,18.4315543 35.7215418,18.4315543 C36.7266939,18.4315543 37.5308642,17.6296762 37.5308642,16.6274498 C37.5308642,15.6252234 36.7266939,14.8233453 35.7215418,14.8233453 C34.7163896,14.8233453 33.9124623,15.6252234 33.9124623,16.6274498 Z M38.0669777,19.6343715 C38.0669777,20.7035423 38.93798,21.5723649 40.0102071,21.5723649 C41.0821911,21.5723649 41.9534364,20.7035423 41.9534364,19.6343715 C41.9534364,18.5652006 41.0821911,17.6966206 40.0102071,17.6966206 C38.93798,17.6966206 38.0669777,18.5652006 38.0669777,19.6343715 Z M17.2944007,17.2956815 C16.6243803,16.1598088 15.1501896,15.7588698 13.9440556,16.4271015 C12.8049966,17.0953333 12.4027899,18.5652006 13.0730534,19.7680178 C13.7430738,20.9041331 15.2172645,21.3050722 16.4233985,20.6368404 C17.5624575,19.9016642 17.9644211,18.4315543 17.2944007,17.2956815 Z M20.5108389,19.099786 C19.6398367,19.6343715 19.304705,20.7704867 19.8408185,21.6390668 C20.376689,22.5078893 21.5159911,22.8418839 22.3869933,22.3072985 C23.2582386,21.7727131 23.5931272,20.6368404 23.0570137,19.7680178 C22.5211432,18.8994378 21.3818412,18.5652006 20.5108389,19.099786 Z M12.6037718,22.7749395 C11.4647127,23.4431713 11.0627491,24.9132811 11.7327695,26.1160983 C12.4027899,27.2519711 13.8769807,27.6529101 15.0831146,26.9849209 C16.2224166,26.3166891 16.6243803,24.8465792 15.9543599,23.6437621 C15.2840964,22.4409449 13.8101487,22.0400058 12.6037718,22.7749395 Z M14.3460192,33.1991125 C15.4182463,32.5978252 15.82021,31.1946598 15.1501896,30.1254889 C14.5470011,29.0563181 13.1398853,28.655379 12.0679012,29.3236108 C10.9956742,29.9248981 10.5937105,31.3283061 11.2637309,32.3972344 C11.8666764,33.4664052 13.2740352,33.8006424 14.3460192,33.1991125 Z M14.5470011,39.547193 C15.5521532,39.0126076 15.8872849,37.7430885 15.2840964,36.7408622 C14.681151,35.7383932 13.475017,35.4043986 12.4698649,36.0056859 C11.4647127,36.5402714 11.129824,37.8097904 11.7327695,38.8122594 C12.335958,39.7477838 13.542092,40.1487229 14.5470011,39.547193 Z M16.0211918,42.8214074 C15.4853213,41.9528274 14.3460192,41.6188328 13.475017,42.1534182 C12.6037718,42.6877611 12.2688831,43.8238763 12.8049966,44.6924564 C13.3408671,45.5612789 14.4801691,45.8952735 15.3511714,45.3606881 C16.2224166,44.8261027 16.5573053,43.69023 16.0211918,42.8214074 Z M15.6863031,48.4345543 C14.8150578,48.9021952 14.5470011,50.0383105 15.0162827,50.8401886 C15.4853213,51.7087686 16.6243803,51.9760614 17.4285506,51.5084204 C18.2995528,51.0405369 18.5676096,49.9046642 18.098571,49.102786 C17.6295324,48.2339635 16.5573053,47.8999689 15.6863031,48.4345543 Z M19.3717799,53.8471103 C18.5676096,54.3147513 18.2995528,55.3172202 18.7685914,56.1190983 C19.23763,56.9209764 20.2427822,57.1882691 21.0469525,56.7203856 C21.8508798,56.2527447 22.1189365,55.2502757 21.6498979,54.4483976 C21.2479343,53.6465195 20.1757072,53.3792268 19.3717799,53.8471103 Z M24.3302226,57.9232028 C23.5931272,58.3241419 23.3921454,59.2596663 23.7941091,59.9946 C24.1963157,60.7297762 25.1343929,60.9301245 25.8714883,60.5291854 C26.6085836,60.1282464 26.8095655,59.1927219 26.4076018,58.4577882 C25.9385632,57.722612 25.067318,57.5222638 24.3302226,57.9232028 Z M36.9947507,59.0590755 C36.3918052,59.3933127 36.1905803,60.1282464 36.5257121,60.7297762 C36.8608438,61.3310636 37.5979391,61.5316544 38.2008846,61.1974172 C38.8040731,60.8634226 39.0050549,60.1282464 38.6699232,59.5269591 C38.3350345,58.9254292 37.5979391,58.7250809 36.9947507,59.0590755 Z M42.8915136,56.5200374 C42.422475,56.7873301 42.2214931,57.4553193 42.4893069,57.9232028 C42.7573637,58.3908438 43.4276271,58.5914346 43.8966657,58.3241419 C44.3657043,58.0568492 44.5666861,57.3886174 44.2986293,56.9209764 C44.0305726,56.386391 43.4276271,56.1858002 42.8915136,56.5200374 Z M47.8499563,52.8446414 C47.3809177,53.1119341 47.2470108,53.6465195 47.5150676,54.114403 C47.7831243,54.582044 48.3189948,54.7156903 48.7880334,54.4483976 C49.2573151,54.1811049 49.3912219,53.6465195 49.1231652,53.1788785 C48.8551084,52.710995 48.2521629,52.5773487 47.8499563,52.8446414 Z M51.9376397,47.6326761 C51.4683581,47.8999689 51.3344512,48.4345543 51.602508,48.9021952 C51.8705648,49.3700787 52.4066783,49.5037251 52.8757169,49.2364324 C53.3447555,48.9691397 53.4786624,48.4345543 53.2106056,47.9666708 C53.0096238,47.4990298 52.4066783,47.3653834 51.9376397,47.6326761 Z M52.2725284,44.4251637 C52.0044717,43.9575227 51.4683581,43.8238763 50.9993195,44.0911691 C50.5302809,44.3584618 50.3963741,44.8930472 50.6644308,45.3606881 C50.9324876,45.8285716 51.4683581,45.962218 51.9376397,45.6949253 C52.4066783,45.4276326 52.5405852,44.8930472 52.2725284,44.4251637 Z M48.3860698,49.5037251 C48.7880334,49.3031343 48.9221833,48.7685489 48.7212015,48.3676098 C48.5202197,47.9666708 47.9841062,47.8330244 47.5818995,48.0336152 C47.1799358,48.2339635 47.046029,48.7685489 47.2470108,49.1694879 C47.4479926,49.570427 47.9841062,49.7040733 48.3860698,49.5037251 Z M43.8966657,51.4414759 C43.494459,51.6420667 43.3605522,52.1766522 43.561534,52.5773487 C43.7625158,52.9782877 44.2986293,53.1119341 44.700593,52.9115858 C45.1027997,52.710995 45.2367065,52.1766522 45.0357247,51.7757131 C44.7676679,51.3078296 44.2986293,51.1741832 43.8966657,51.4414759 Z M38.93798,53.5798176 C38.4689414,53.8471103 38.3350345,54.3816957 38.6028483,54.8493367 C38.870905,55.3172202 39.4070186,55.4508665 39.8760572,55.1835738 C40.3450958,54.9162811 40.4792456,54.3816957 40.2111889,53.9138122 C39.9431321,53.5128731 39.4070186,53.3125249 38.93798,53.5798176 Z M33.8453874,53.9138122 C33.2421989,54.2480494 33.0412171,54.982983 33.3763488,55.5845129 C33.7114805,56.1858002 34.4485759,56.386391 35.0515213,56.0521539 C35.6547098,55.7181593 35.8556916,54.982983 35.5205599,54.3816957 C35.1856712,53.7801659 34.4485759,53.5798176 33.8453874,53.9138122 Z M30.7630991,52.9115858 C30.3608924,52.1766522 29.4228152,51.9760614 28.6857198,52.3770004 C27.9486245,52.7779395 27.7476427,53.713464 28.1496063,54.4483976 C28.551813,55.1835738 29.4898902,55.3839221 30.2269855,54.982983 C30.8970059,54.5153421 31.1650627,53.6465195 30.7630991,52.9115858 Z M24.6653543,49.102786 C23.928259,49.5037251 23.7272771,50.4392496 24.1292408,51.1741832 C24.5312044,51.9093595 25.4695246,52.1097077 26.206377,51.7087686 C26.9434723,51.3078296 27.1446972,50.3723051 26.7424905,49.6373714 C26.2734519,48.9021952 25.3353747,48.701847 24.6653543,49.102786 Z M23.928259,45.2939862 C23.4592204,44.55881 22.5211432,44.2915173 21.7169729,44.6924564 C20.9128026,45.0933954 20.7118207,46.0958644 21.1808593,46.830798 C21.6498979,47.5657317 22.5879751,47.8330244 23.3921454,47.4320853 C24.1292408,47.0313888 24.3972976,46.0289199 23.928259,45.2939862 Z M20.0418003,40.0817784 C19.304705,40.4827175 19.1037231,41.418242 19.5056868,42.1534182 C19.9076504,42.8883519 20.8459706,43.0887001 21.582823,42.6877611 C22.3199183,42.2870646 22.5211432,41.3515401 22.1189365,40.6163639 C21.7169729,39.8814302 20.7788957,39.6808394 20.0418003,40.0817784 Z M20.9128026,37.6094422 C21.7840478,37.1418012 22.0521046,36.0056859 21.582823,35.2038078 C21.1137844,34.3352278 19.9747254,34.0679351 19.1705551,34.535576 C18.2995528,35.0034596 18.0314961,36.1393323 18.5005347,36.9412104 C18.9695732,37.7430885 20.0418003,38.1440276 20.9128026,37.6094422 Z M20.7788957,32.5308807 C21.6498979,32.0632398 21.9179547,30.9273671 21.4489161,30.1254889 C20.9798775,29.2566664 19.8408185,28.9893737 19.0366482,29.4572572 C18.165646,29.9248981 17.8975892,31.0610134 18.3666278,31.8628915 C18.8356664,32.7314716 19.9076504,32.9987643 20.7788957,32.5308807 Z M21.3150092,27.4525619 C22.2530864,26.9179764 22.5879751,25.7151593 22.0521046,24.7796348 C21.5159911,23.8441103 20.3098571,23.5101157 19.3717799,24.0447011 C18.4334597,24.5792865 18.098571,25.7821037 18.6346846,26.7176282 C19.1705551,27.6529101 20.376689,27.9871473 21.3150092,27.4525619 Z M32.4382716,45.2270418 C31.3660445,44.4251637 29.8250219,44.6924564 29.0208516,45.7616272 C28.2166812,46.830798 28.484738,48.3676098 29.5569651,49.1694879 C30.6289492,49.9713661 32.1702148,49.7040733 32.9743851,48.6349025 C33.7783124,47.5657317 33.5773306,45.962218 32.4382716,45.2270418 Z M28.9537766,39.4804911 C28.3508311,40.3490712 28.551813,41.4851864 29.3559833,42.0864737 C30.1599106,42.6877611 31.3660445,42.4874128 31.969233,41.6855347 C32.5721785,40.8169547 32.3711967,39.6808394 31.5670263,39.0795521 C30.7630991,38.4113203 29.5569651,38.6116686 28.9537766,39.4804911 Z M39.3399436,47.1650352 C40.1441139,46.0958644 39.8760572,44.55881 38.8040731,43.7569319 C37.731846,42.9550538 36.1905803,43.2223465 35.3866531,44.2915173 C34.5824827,45.3606881 34.8505395,46.8977425 35.9225236,47.699378 C36.9947507,48.5012562 38.6028483,48.2339635 39.3399436,47.1650352 Z M44.7676679,41.819181 C43.7625158,41.0842474 42.3554,41.3515401 41.6183047,42.3537665 C40.8812093,43.3559928 41.1492661,44.7594008 42.1544182,45.4943345 C43.1595703,46.2295107 44.5666861,45.962218 45.3037815,44.9597491 C46.0408768,43.9575227 45.7728201,42.5541147 44.7676679,41.819181 Z M50.9993195,41.8861255 C51.669583,40.950601 51.4683581,39.6808394 50.5302809,39.0126076 C49.5922038,38.3443758 48.3189948,38.5449667 47.6489744,39.4804911 C46.978954,40.4160156 47.1799358,41.6855347 48.118013,42.3537665 C49.0560902,43.0219982 50.3292991,42.8214074 50.9993195,41.8861255 Z M55.4889667,35.938984 C54.6179644,35.3374542 53.4786624,35.538045 52.8757169,36.3399231 C52.2725284,37.2085031 52.4735103,38.3443758 53.2776806,38.9459057 C54.1486828,39.547193 55.2879848,39.3468448 55.8909303,38.5449667 C56.5611937,37.7430885 56.3599689,36.5402714 55.4889667,35.938984 Z M60.1795956,31.5286544 C59.3754253,30.9273671 58.2363663,31.1277153 57.7002527,31.9295934 C57.0970643,32.7314716 57.2980461,33.8673443 58.1022164,34.4019297 C58.9063867,35.0034596 60.0454457,34.8028688 60.5815592,34.0009906 C61.1845047,33.1991125 60.9835229,32.0632398 60.1795956,31.5286544 Z M63.5299407,26.0493964 C62.7928453,25.514811 61.7206183,25.6484574 61.1845047,26.4503355 C60.6486342,27.1852692 60.7825411,28.25444 61.5867114,28.7890254 C62.3908817,29.3236108 63.3957908,29.1899645 63.9319043,28.3880863 C64.4680179,27.6529101 64.2670361,26.5839818 63.5299407,26.0493964 Z M65.0041314,20.1689569 C64.333868,19.7013159 63.3957908,19.8349623 62.9267522,20.503194 C62.4577136,21.1714258 62.5918635,22.1069503 63.2618839,22.5745912 C63.9319043,23.0422322 64.8699815,22.9085858 65.3390201,22.2405966 C65.8080587,21.6390668 65.6741518,20.7035423 65.0041314,20.1689569 Z M62.1896568,16.3601571 C62.8599203,16.8280406 63.7979975,16.6943942 64.2670361,16.0261625 C64.7360747,15.3579307 64.6019248,14.4224062 63.9319043,13.9545227 C63.2618839,13.4868817 62.3238067,13.6205281 61.8547682,14.2887599 C61.3857296,14.9569916 61.5196364,15.8925161 62.1896568,16.3601571 Z M59.0402936,10.6136064 C59.5764071,11.0145455 60.3805774,10.8808991 60.7154661,10.3463137 C61.1176728,9.8117283 60.9835229,9.00985018 60.4474094,8.67561302 C59.9115388,8.34161841 59.1073685,8.40832031 58.7722368,8.94290573 C58.3702732,9.47749114 58.50418,10.2793693 59.0402936,10.6136064 Z M54.2828327,6.33692311 C54.7518713,6.67116027 55.4218917,6.53751391 55.6899485,6.0696304 C56.0250802,5.60198944 55.8909303,4.93375767 55.4218917,4.66646496 C54.9528531,4.3322278 54.2828327,4.46587416 54.0147759,4.93375767 C53.7467192,5.33469673 53.8137941,6.0029285 54.2828327,6.33692311 Z M50.1953922,3.19635508 C50.463449,2.79541601 50.3963741,2.1941287 49.9944104,1.85989154 C49.5922038,1.52589693 48.9892583,1.65954329 48.6541266,2.06048235 C48.3189948,2.46117885 48.4531447,3.06270872 48.8551084,3.39670333 C49.324147,3.66399604 49.9273355,3.59729414 50.1953922,3.19635508 Z M40.9482842,3.86458684 C41.216341,3.46364778 41.1492661,2.86211792 40.7473024,2.52812331 C40.3450958,2.1941287 39.7421503,2.3275325 39.4070186,2.72847156 C39.0718868,3.12941062 39.2060367,3.73094049 39.6080004,4.0649351 C40.077039,4.39917226 40.6131525,4.2655259 40.9482842,3.86458684 Z M45.839895,5.40139863 C46.1079518,5.00045957 46.0408768,4.46587416 45.6386702,4.19858145 C45.2367065,3.93128874 44.700593,3.9982332 44.4325362,4.39917226 C44.1647225,4.80011132 44.2315544,5.33469673 44.6337611,5.60198944 C45.0357247,5.86928215 45.5718382,5.80233769 45.839895,5.40139863 Z M49.0560902,6.40386756 C48.7880334,6.80480662 48.8551084,7.33914948 49.2573151,7.60644219 C49.6592787,7.8737349 50.1953922,7.807033 50.463449,7.40609394 C50.7312628,7.00515488 50.6644308,6.47056946 50.2622242,6.20327675 C49.8602605,5.93598405 49.324147,6.0029285 49.0560902,6.40386756 Z M54.5508895,10.8808991 C54.8189462,10.4799601 54.7518713,9.8784302 54.3499077,9.54443559 C53.947701,9.21019843 53.3447555,9.34384479 53.0096238,9.74478385 C52.741567,10.1457229 52.808642,10.7472528 53.2106056,11.0812474 C53.6796442,11.4154845 54.2828327,11.3485401 54.5508895,10.8808991 Z M55.4218917,13.8878208 C55.0199281,14.4224062 55.1538349,15.2242843 55.6899485,15.5582789 C56.226062,15.8925161 57.0302323,15.8255717 57.365121,15.2909862 C57.7673277,14.7564008 57.6331778,13.9545227 57.0970643,13.6205281 C56.5611937,13.219589 55.8240984,13.3532354 55.4218917,13.8878208 Z M56.0250802,18.8324933 C55.5560416,19.5007251 55.6899485,20.4362496 56.3599689,20.9041331 C57.0302323,21.3717741 57.9683095,21.2381277 58.4373481,20.5698959 C58.9063867,19.9016642 58.7722368,18.9661397 58.1022164,18.4984987 C57.432196,18.0306152 56.4941188,18.1642616 56.0250802,18.8324933 Z M56.8290075,23.5101157 C56.1589871,23.0422322 55.2209099,23.1758785 54.7518713,23.8441103 C54.2828327,24.5123421 54.4167396,25.4478666 55.087003,25.9157501 C55.7570234,26.383391 56.6951006,26.2497447 57.1641392,25.5815129 C57.6331778,24.9802256 57.4992709,24.0447011 56.8290075,23.5101157 Z M52.2054535,30.3927816 C52.9425488,30.9273671 53.947701,30.7267762 54.4167396,30.0585445 C54.9528531,29.3236108 54.7518713,28.3211419 54.0818509,27.8535009 C53.3447555,27.3189155 52.3396034,27.5192638 51.8705648,28.1874955 C51.3344512,28.8557273 51.5354331,29.8581962 52.2054535,30.3927816 Z M48.3860698,31.7292452 C47.9170312,32.3972344 48.0511811,33.3327589 48.7212015,33.8006424 C49.3912219,34.2682833 50.3292991,34.134637 50.7983377,33.4664052 C51.2673763,32.7981735 51.1334694,31.8628915 50.463449,31.395008 C49.7931856,30.9273671 48.8551084,31.0610134 48.3860698,31.7292452 Z M46.1079518,34.0679351 C45.3037815,33.4664052 44.1647225,33.666996 43.6286089,34.4688741 C43.0254204,35.2707523 43.2264023,36.406625 44.0305726,36.9412104 C44.8347429,37.5424977 45.9738019,37.3421495 46.5099154,36.5402714 C47.1128609,35.7383932 46.9118791,34.6025205 46.1079518,34.0679351 Z M41.9534364,38.7453149 C42.5563818,37.9434368 42.3554,36.8075641 41.5512297,36.2729786 C40.7473024,35.6716913 39.6080004,35.8720396 39.0718868,36.6739177 C38.5360163,37.4757958 38.6699232,38.6116686 39.4740935,39.146254 C40.2782638,39.7477838 41.3502479,39.547193 41.9534364,38.7453149 Z M36.6596189,37.8767349 C37.5979391,38.4780222 37.798921,39.7477838 37.1289006,40.6163639 C36.5257121,41.4851864 35.2525032,41.6855347 34.3815009,41.0842474 C33.5102557,40.4827175 33.3092738,39.2131984 33.9124623,38.3443758 C34.5154078,37.4757958 35.7886167,37.2754476 36.6596189,37.8767349 Z" id="path-1"></path>
        <polygon id="path-3" points="11.8110236 32.8083325 11.8110236 -6.64881208e-05 0.262368766 -6.64881208e-05 0.262368766 32.8083325"></polygon>
    </defs>
    <g id="Page-1" stroke="none" stroke-width="1" fill="none" fill-rule="evenodd">
        <g id="Group">
            <g id="Group-3-Copy">
                <mask id="mask-2" fill="white">
                    <use xlink:href="#path-1"></use>
                </mask>
                <g id="Clip-2"></g>
                <polygon id="Fill-1" fill="#ED7117" mask="url(#mask-2)" points="0.0145815106 62.3214049 65.6313794 62.3214049 65.6313794 -0.0242552366 0.0145815106 -0.0242552366"></polygon>
            </g>
            <path d="M80.9711286,30.064238 L80.9711286,26.2584637 C80.9711286,24.7164689 78.6089239,24.6836605 78.6089239,26.2584637 L78.6089239,30.064238 L76.4435696,30.064238 C75,30.064238 74.9015748,32.1311671 76.4435696,32.1311671 L78.6089239,32.1311671 L78.6089239,40.9894348 C78.6089239,44.1062327 79.5603675,46.9933718 83.4973753,46.9933718 C84.3832021,46.9933718 85.2034121,46.8949466 86.023622,46.435629 C87.5,45.6154191 86.4173228,43.6797235 85.0393701,44.4671251 C84.7112861,44.6639755 83.9895013,44.8280175 83.4973753,44.8280175 C81.2664042,44.8280175 80.9711286,42.8595136 80.9711286,40.9894348 L80.9711286,32.1311671 L84.5472441,32.1311671 C86.023622,32.1311671 86.023622,30.064238 84.5472441,30.064238 L80.9711286,30.064238 Z M92.191601,31.1469151 C92.191601,29.572112 89.8622047,29.7033456 89.8622047,31.1469151 L89.8622047,45.6810359 C89.8622047,46.3700123 90.3543307,46.8293298 91.0761155,46.8293298 C91.6994751,46.8293298 92.2572178,46.3700123 92.2572178,45.6810359 L92.2572178,38.2663377 C92.2572178,34.9526894 93.7007874,32.2624007 97.0800525,32.2624007 C97.8346457,32.2624007 98.3267717,31.8686999 98.3267717,31.1469151 C98.3267717,30.392322 97.8346457,29.9986212 97.0800525,29.9986212 C95.2099738,29.9986212 93.2414698,30.5891724 92.191601,32.7873351 L92.191601,31.1469151 Z M105.052493,30.4579388 L105.019685,30.4907472 C106.102362,29.9986212 107.283465,29.8345792 108.530184,29.8673876 C110.400262,29.900196 112.532808,30.4907472 113.713911,32.4264427 L113.713911,31.1797235 C113.713911,30.4907472 114.14042,29.9986212 114.895013,29.9986212 C115.616798,29.9986212 116.108924,30.4907472 116.108924,31.1797235 L116.108924,45.7466527 C116.108924,46.4684374 115.616798,46.927755 114.895013,46.927755 C114.14042,46.927755 113.713911,46.4684374 113.713911,45.7466527 L113.713911,44.1718495 C112.762467,46.0747367 110.334646,47.1574138 108.39895,47.1574138 C106.824147,47.1574138 105.052493,46.7309046 103.674541,45.7466527 C101.181102,44.0406159 99.9015748,41.251902 100,38.0366789 C100.065617,34.7230306 101.902887,31.6718495 105.052493,30.4579388 Z M108.169291,44.8936343 C111.187664,44.8936343 113.549869,43.056364 113.713911,39.7755241 L113.713911,37.1836605 C113.713911,33.935629 111.450131,32.2624007 108.497375,32.1311671 C106.167979,32.0983587 103.805774,33.3450779 102.887139,35.6416658 C102.591864,36.3306422 102.427822,37.2164689 102.395013,38.0694873 C102.329396,40.2020332 103.018373,42.1705372 104.790026,43.6469151 C105.774278,44.4015083 106.955381,44.7952091 108.169291,44.8936343 Z M120.275591,38.0366789 C120.406824,33.3778863 123.753281,29.8673876 128.674541,29.8673876 C130.872703,29.8673876 133.005249,30.7860228 133.989501,32.5248679 L133.989501,25.9959965 C133.989501,24.4868102 136.384514,24.4868102 136.384514,25.9959965 L136.384514,45.8122695 C136.384514,46.5340542 135.925197,46.9605634 135.170604,46.9605634 C134.41601,46.9605634 134.055118,46.5340542 134.055118,45.8122695 L134.055118,44.2702747 C132.939633,46.3043955 130.643045,47.1574138 128.674541,47.1574138 C127.65748,47.1574138 126.541995,46.9605634 125.524934,46.5340542 L125.557743,46.5668626 C121.981627,45.0904847 120.177165,41.8424532 120.275591,38.0366789 Z M128.47769,44.8936343 C131.463255,44.8936343 133.989501,42.9907472 133.989501,39.7755241 L133.989501,37.1836605 C133.989501,34.2965214 131.75853,32.2624007 128.772966,32.1311671 C126.44357,32.1311671 124.114173,33.3778863 123.16273,35.6416658 C122.900262,36.3306422 122.703412,37.2164689 122.670604,38.0694873 C122.637795,40.2020332 123.326772,42.1705372 125.098425,43.6469151 C126.049869,44.4015083 127.230971,44.7952091 128.47769,44.8936343 Z M151.476378,30.1298548 L151.509186,30.1298548 C155.216535,31.1469151 157.513123,34.1652878 157.57874,38.3647629 L157.57874,38.3319545 C157.644357,39.0537393 157.316273,39.8411409 155.971129,39.8411409 L143.011811,39.8411409 C143.43832,42.5314296 145.734908,44.7624007 149.015748,44.7624007 C150.524934,44.7624007 152.099738,44.3686999 153.379265,43.3844479 C154.527559,42.3345792 156.233596,43.6797235 154.954068,44.9920595 C153.444882,46.4028207 151.246719,46.9933718 149.114173,46.9605634 C146.555118,46.9605634 143.996063,45.9763115 142.454068,44.0406159 C138.910761,39.3818233 140.452756,31.8358915 146.555118,30.1298548 C148.097113,29.6705372 149.868766,29.7033456 151.476378,30.1298548 Z M147.276903,32.2952091 C144.652231,32.9841855 143.110236,35.1823482 142.913386,37.8398285 L155.282152,37.8398285 C155.052493,35.0511146 153.346457,32.9185687 150.787402,32.2624007 L150.82021,32.2624007 C149.737533,31.9671251 148.392388,31.9671251 147.276903,32.2952091 Z M160.826772,38.0366789 C160.958005,33.3778863 164.304462,29.8673876 169.225722,29.8673876 C171.423885,29.8673876 173.55643,30.7860228 174.540682,32.5248679 L174.540682,25.9959965 C174.540682,24.4868102 176.935696,24.4868102 176.935696,25.9959965 L176.935696,45.8122695 C176.935696,46.5340542 176.476378,46.9605634 175.721785,46.9605634 C174.967192,46.9605634 174.606299,46.5340542 174.606299,45.8122695 L174.606299,44.2702747 C173.490814,46.3043955 171.194226,47.1574138 169.225722,47.1574138 C168.208661,47.1574138 167.093176,46.9605634 166.076115,46.5340542 L166.108924,46.5668626 C162.532808,45.0904847 160.728346,41.8424532 160.826772,38.0366789 Z M169.028871,44.8936343 C172.014436,44.8936343 174.540682,42.9907472 174.540682,39.7755241 L174.540682,37.1836605 C174.540682,34.2965214 172.309711,32.2624007 169.324147,32.1311671 C166.994751,32.1311671 164.665354,33.3778863 163.713911,35.6416658 C163.451444,36.3306422 163.254593,37.2164689 163.221785,38.0694873 C163.188976,40.2020332 163.877953,42.1705372 165.649606,43.6469151 C166.60105,44.4015083 167.782152,44.7952091 169.028871,44.8936343 Z M192.027559,30.1298548 L192.060367,30.1298548 C195.767717,31.1469151 198.064304,34.1652878 198.129921,38.3647629 L198.129921,38.3319545 C198.195538,39.0537393 197.867454,39.8411409 196.52231,39.8411409 L183.562992,39.8411409 C183.989501,42.5314296 186.286089,44.7624007 189.566929,44.7624007 C191.076115,44.7624007 192.650919,44.3686999 193.930446,43.3844479 C195.07874,42.3345792 196.784777,43.6797235 195.505249,44.9920595 C193.996063,46.4028207 191.7979,46.9933718 189.665354,46.9605634 C187.106299,46.9605634 184.547244,45.9763115 183.005249,44.0406159 C179.461942,39.3818233 181.003937,31.8358915 187.106299,30.1298548 C188.648294,29.6705372 190.419948,29.7033456 192.027559,30.1298548 Z M187.828084,32.2952091 C185.203412,32.9841855 183.661417,35.1823482 183.464567,37.8398285 L195.833333,37.8398285 C195.603675,35.0511146 193.897638,32.9185687 191.338583,32.2624007 L191.371391,32.2624007 C190.288714,31.9671251 188.94357,31.9671251 187.828084,32.2952091 Z M218.43832,38.9553141 C218.307087,43.6141067 214.96063,47.1246054 210.03937,47.1246054 C207.841207,47.1246054 205.708661,46.2387787 204.724409,44.4999335 L204.724409,51.5537393 C204.724409,53.0629256 202.329396,53.0629256 202.329396,51.5537393 L202.329396,31.1797235 C202.329396,30.4579388 202.788714,30.0314296 203.543307,30.0314296 C204.2979,30.0314296 204.658793,30.4579388 204.658793,31.1797235 L204.658793,32.7217183 C205.774278,30.6875976 208.070866,29.8345792 210.03937,29.8345792 C211.05643,29.8345792 212.171916,30.0314296 213.188976,30.4579388 L213.156168,30.4251304 C216.732283,31.9015083 218.536745,35.1495398 218.43832,38.9553141 Z M210.23622,32.0983587 C207.250656,32.0983587 204.724409,34.0012458 204.724409,37.2164689 L204.724409,39.8083325 C204.724409,42.6954716 206.955381,44.7295923 209.940945,44.8608259 C212.270341,44.8608259 214.599738,43.6141067 215.551181,41.3503272 C215.813648,40.6613508 216.010499,39.7755241 216.043307,38.9225057 C216.076115,36.7899598 215.387139,34.8214558 213.615486,33.3450779 C212.664042,32.5904847 211.48294,32.1967839 210.23622,32.0983587 Z M230.216535,47.0589886 C227.591864,47.0589886 225.262467,46.0419283 223.654856,44.1062327 C222.178478,42.3673876 221.555118,40.26765 221.653543,37.8070201 C221.981627,34.1652878 224.114173,31.1141067 227.723097,30.0970464 C228.510499,29.8673876 229.396325,29.8017708 230.216535,29.8017708 C231.003937,29.8017708 231.791339,29.8673876 232.644357,30.0970464 C236.220472,31.1141067 238.451444,34.1324794 238.746719,37.8070201 C238.877953,40.26765 238.221785,42.3673876 236.778215,44.1062327 C235.170604,46.0419283 232.808399,47.0589886 230.216535,47.0589886 Z M231.988189,32.2624007 C231.463255,32.1311671 230.807087,32.0327419 230.183727,32.0327419 C229.560367,32.0327419 228.937008,32.1311671 228.444882,32.2624007 C225.688976,32.9841855 224.081365,35.5432406 224.081365,38.4959965 C224.081365,39.9723745 224.540682,41.5143692 225.524934,42.6626632 C226.673228,44.0406159 228.412073,44.8280175 230.216535,44.8280175 C231.988189,44.8280175 233.792651,43.9749991 234.940945,42.6626632 C235.85958,41.5471776 236.384514,39.9723745 236.384514,38.5616133 C236.384514,35.576049 234.776903,32.9841855 231.988189,32.2624007 Z" id="tradedepo-copy" fill="#ED7117"></path>
            <g id="Group-5-Copy" transform="translate(237.860892, 14.763780)">
                <mask id="mask-4" fill="white">
                    <use xlink:href="#path-3"></use>
                </mask>
                <g id="Clip-4"></g>
                <text id="t" mask="url(#mask-4)" font-family="Hero" font-size="32.808399" font-weight="normal" fill="#ED7117">
                    <tspan x="0.262368766" y="31.9999335">t</tspan>
                </text>
            </g>
        </g>
    </g>
</svg>